<svg width="180" height="40" viewBox="0 0 180 40" fill="none" xmlns="http://www.w3.org/2000/svg">
<g clip-path="url(#clip0_847_4423)">
<path d="M19.2571 22.0365C20.2446 22.0365 21.045 21.236 21.045 20.2486C21.045 19.2612 20.2446 18.4607 19.2571 18.4607C18.2697 18.4607 17.4692 19.2612 17.4692 20.2486C17.4692 21.236 18.2697 22.0365 19.2571 22.0365Z" fill="#E23248"/>
<path d="M14.4074 15.054C15.1973 15.054 15.8377 14.4136 15.8377 13.6237C15.8377 12.8337 15.1973 12.1934 14.4074 12.1934C13.6174 12.1934 12.9771 12.8337 12.9771 13.6237C12.9771 14.4136 13.6174 15.054 14.4074 15.054Z" fill="#D9D6CC"/>
<path d="M2.0512 16.7543C3.18404 16.7543 4.1024 15.8359 4.1024 14.7031C4.1024 13.5702 3.18404 12.6519 2.0512 12.6519C0.918353 12.6519 0 13.5702 0 14.7031C0 15.8359 0.918353 16.7543 2.0512 16.7543Z" fill="#40BB93"/>
<path d="M2.09996 27.5564C3.06584 27.5564 3.84884 26.7734 3.84884 25.8075C3.84884 24.8416 3.06584 24.0586 2.09996 24.0586C1.13408 24.0586 0.351074 24.8416 0.351074 25.8075C0.351074 26.7734 1.13408 27.5564 2.09996 27.5564Z" fill="#40BB93"/>
<path d="M6.39418 21.679C7.18412 21.679 7.82449 21.0386 7.82449 20.2487C7.82449 19.4587 7.18412 18.8184 6.39418 18.8184C5.60424 18.8184 4.96387 19.4587 4.96387 20.2487C4.96387 21.0386 5.60424 21.679 6.39418 21.679Z" fill="#4FB9DB"/>
<path d="M8.92006 14.1602C9.71 14.1602 10.3504 13.5198 10.3504 12.7299C10.3504 11.9399 9.71 11.2996 8.92006 11.2996C8.13012 11.2996 7.48975 11.9399 7.48975 12.7299C7.48975 13.5198 8.13012 14.1602 8.92006 14.1602Z" fill="#2378AC"/>
<path d="M11.4655 18.8899C12.0669 18.8899 12.5544 18.4023 12.5544 17.8009C12.5544 17.1995 12.0669 16.7119 11.4655 16.7119C10.864 16.7119 10.3765 17.1995 10.3765 17.8009C10.3765 18.4023 10.864 18.8899 11.4655 18.8899Z" fill="#D9D6CC"/>
<path d="M19.2572 40.0031C20.2231 40.0031 21.0061 39.2201 21.0061 38.2543C21.0061 37.2884 20.2231 36.5054 19.2572 36.5054C18.2913 36.5054 17.5083 37.2884 17.5083 38.2543C17.5083 39.2201 18.2913 40.0031 19.2572 40.0031Z" fill="#40BB93"/>
<path d="M36.7396 27.5564C37.7055 27.5564 38.4885 26.7734 38.4885 25.8075C38.4885 24.8416 37.7055 24.0586 36.7396 24.0586C35.7737 24.0586 34.9907 24.8416 34.9907 25.8075C34.9907 26.7734 35.7737 27.5564 36.7396 27.5564Z" fill="#40BB93"/>
<path d="M29.9486 7.3337C30.9145 7.3337 31.6975 6.5507 31.6975 5.58482C31.6975 4.61894 30.9145 3.83594 29.9486 3.83594C28.9827 3.83594 28.1997 4.61894 28.1997 5.58482C28.1997 6.5507 28.9827 7.3337 29.9486 7.3337Z" fill="#40BB93"/>
<path d="M8.72154 7.3337C9.68742 7.3337 10.4704 6.5507 10.4704 5.58482C10.4704 4.61894 9.68742 3.83594 8.72154 3.83594C7.75566 3.83594 6.97266 4.61894 6.97266 5.58482C6.97266 6.5507 7.75566 7.3337 8.72154 7.3337Z" fill="#40BB93"/>
<path d="M8.72161 36.8338C9.85445 36.8338 10.7728 35.9155 10.7728 34.7826C10.7728 33.6498 9.85445 32.7314 8.72161 32.7314C7.58876 32.7314 6.67041 33.6498 6.67041 34.7826C6.67041 35.9155 7.58876 36.8338 8.72161 36.8338Z" fill="#40BB93"/>
<path d="M29.9487 36.8338C31.0815 36.8338 31.9999 35.9155 31.9999 34.7826C31.9999 33.6498 31.0815 32.7314 29.9487 32.7314C28.8158 32.7314 27.8975 33.6498 27.8975 34.7826C27.8975 35.9155 28.8158 36.8338 29.9487 36.8338Z" fill="#40BB93"/>
<path d="M36.5478 16.569C37.6806 16.569 38.599 15.6506 38.599 14.5178C38.599 13.3849 37.6806 12.4666 36.5478 12.4666C35.4149 12.4666 34.4966 13.3849 34.4966 14.5178C34.4966 15.6506 35.4149 16.569 36.5478 16.569Z" fill="#40BB93"/>
<path d="M19.2573 4.1024C20.3901 4.1024 21.3085 3.18404 21.3085 2.0512C21.3085 0.918353 20.3901 0 19.2573 0C18.1244 0 17.2061 0.918353 17.2061 2.0512C17.2061 3.18404 18.1244 4.1024 19.2573 4.1024Z" fill="#40BB93"/>
<path d="M15.3009 9.46609C16.0909 9.46609 16.7312 8.82572 16.7312 8.03578C16.7312 7.24584 16.0909 6.60547 15.3009 6.60547C14.511 6.60547 13.8706 7.24584 13.8706 8.03578C13.8706 8.82572 14.511 9.46609 15.3009 9.46609Z" fill="#4FB9DB"/>
<path d="M29.6139 14.1602C30.4038 14.1602 31.0442 13.5198 31.0442 12.7299C31.0442 11.9399 30.4038 11.2996 29.6139 11.2996C28.824 11.2996 28.1836 11.9399 28.1836 12.7299C28.1836 13.5198 28.824 14.1602 29.6139 14.1602Z" fill="#4FB9DB"/>
<path d="M29.6139 29.2239C30.4038 29.2239 31.0442 28.5835 31.0442 27.7936C31.0442 27.0037 30.4038 26.3633 29.6139 26.3633C28.824 26.3633 28.1836 27.0037 28.1836 27.7936C28.1836 28.5835 28.824 29.2239 29.6139 29.2239Z" fill="#4FB9DB"/>
<path d="M15.3009 33.8821C16.0909 33.8821 16.7312 33.2417 16.7312 32.4518C16.7312 31.6619 16.0909 31.0215 15.3009 31.0215C14.511 31.0215 13.8706 31.6619 13.8706 32.4518C13.8706 33.2417 14.511 33.8821 15.3009 33.8821Z" fill="#4FB9DB"/>
<path d="M24.0778 15.2393C24.8677 15.2393 25.5081 14.5989 25.5081 13.809C25.5081 13.019 24.8677 12.3787 24.0778 12.3787C23.2878 12.3787 22.6475 13.019 22.6475 13.809C22.6475 14.5989 23.2878 15.2393 24.0778 15.2393Z" fill="#D9D6CC"/>
<path d="M27.0914 24.3577C27.8814 24.3577 28.5218 23.7173 28.5218 22.9274C28.5218 22.1374 27.8814 21.4971 27.0914 21.4971C26.3015 21.4971 25.6611 22.1374 25.6611 22.9274C25.6611 23.7173 26.3015 24.3577 27.0914 24.3577Z" fill="#D9D6CC"/>
<path d="M19.257 30.1145C20.0469 30.1145 20.6873 29.4742 20.6873 28.6842C20.6873 27.8943 20.0469 27.2539 19.257 27.2539C18.467 27.2539 17.8267 27.8943 17.8267 28.6842C17.8267 29.4742 18.467 30.1145 19.257 30.1145Z" fill="#D9D6CC"/>
<path d="M11.4655 24.3577C12.2554 24.3577 12.8958 23.7173 12.8958 22.9274C12.8958 22.1374 12.2554 21.4971 11.4655 21.4971C10.6755 21.4971 10.0352 22.1374 10.0352 22.9274C10.0352 23.7173 10.6755 24.3577 11.4655 24.3577Z" fill="#D9D6CC"/>
<path d="M8.92006 29.2239C9.71 29.2239 10.3504 28.5835 10.3504 27.7936C10.3504 27.0037 9.71 26.3633 8.92006 26.3633C8.13012 26.3633 7.48975 27.0037 7.48975 27.7936C7.48975 28.5835 8.13012 29.2239 8.92006 29.2239Z" fill="#2378AC"/>
<path d="M23.1871 33.8821C23.9771 33.8821 24.6175 33.2417 24.6175 32.4518C24.6175 31.6619 23.9771 31.0215 23.1871 31.0215C22.3972 31.0215 21.7568 31.6619 21.7568 32.4518C21.7568 33.2417 22.3972 33.8821 23.1871 33.8821Z" fill="#2378AC"/>
<path d="M32.1266 21.679C32.9165 21.679 33.5569 21.0386 33.5569 20.2487C33.5569 19.4587 32.9165 18.8184 32.1266 18.8184C31.3367 18.8184 30.6963 19.4587 30.6963 20.2487C30.6963 21.0386 31.3367 21.679 32.1266 21.679Z" fill="#2378AC"/>
<path d="M23.3663 9.46609C24.1563 9.46609 24.7967 8.82572 24.7967 8.03578C24.7967 7.24584 24.1563 6.60547 23.3663 6.60547C22.5764 6.60547 21.936 7.24584 21.936 8.03578C21.936 8.82572 22.5764 9.46609 23.3663 9.46609Z" fill="#2378AC"/>
<path d="M19.2667 13.1101C19.8682 13.1101 20.3557 12.6225 20.3557 12.0211C20.3557 11.4197 19.8682 10.9321 19.2667 10.9321C18.6653 10.9321 18.1777 11.4197 18.1777 12.0211C18.1777 12.6225 18.6653 13.1101 19.2667 13.1101Z" fill="#D9D6CC"/>
<path d="M27.0914 18.8899C27.6929 18.8899 28.1804 18.4023 28.1804 17.8009C28.1804 17.1995 27.6929 16.7119 27.0914 16.7119C26.49 16.7119 26.0024 17.1995 26.0024 17.8009C26.0024 18.4023 26.49 18.8899 27.0914 18.8899Z" fill="#D9D6CC"/>
<path d="M24.0782 27.9885C24.6797 27.9885 25.1672 27.501 25.1672 26.8995C25.1672 26.2981 24.6797 25.8105 24.0782 25.8105C23.4768 25.8105 22.9893 26.2981 22.9893 26.8995C22.9893 27.501 23.4768 27.9885 24.0782 27.9885Z" fill="#D9D6CC"/>
<path d="M14.4821 28.1999C15.0835 28.1999 15.571 27.7124 15.571 27.111C15.571 26.5095 15.0835 26.022 14.4821 26.022C13.8806 26.022 13.3931 26.5095 13.3931 27.111C13.3931 27.7124 13.8806 28.1999 14.4821 28.1999Z" fill="#D9D6CC"/>
</g>
<path d="M48.5911 28V16.264H50.4391V18.256H50.7751C51.0311 17.696 51.4631 17.192 52.0711 16.744C52.6951 16.28 53.6071 16.048 54.8071 16.048C55.6871 16.048 56.4711 16.232 57.1591 16.6C57.8631 16.968 58.4231 17.512 58.8391 18.232C59.2551 18.952 59.4631 19.84 59.4631 20.896V28H57.5671V21.04C57.5671 19.872 57.2711 19.024 56.6791 18.496C56.1031 17.968 55.3191 17.704 54.3271 17.704C53.1911 17.704 52.2631 18.072 51.5431 18.808C50.8391 19.544 50.4871 20.64 50.4871 22.096V28H48.5911ZM66.9099 28.336C66.0939 28.336 65.3499 28.192 64.6779 27.904C64.0059 27.616 63.4779 27.2 63.0939 26.656C62.7099 26.112 62.5179 25.448 62.5179 24.664C62.5179 23.864 62.7099 23.208 63.0939 22.696C63.4779 22.168 64.0059 21.776 64.6779 21.52C65.3499 21.248 66.1019 21.112 66.9339 21.112H70.8939V20.248C70.8939 19.416 70.6459 18.76 70.1499 18.28C69.6699 17.8 68.9499 17.56 67.9899 17.56C67.0459 17.56 66.3099 17.792 65.7819 18.256C65.2539 18.704 64.8939 19.312 64.7019 20.08L62.9259 19.504C63.1179 18.848 63.4219 18.256 63.8379 17.728C64.2539 17.184 64.8059 16.752 65.4939 16.432C66.1979 16.096 67.0379 15.928 68.0139 15.928C69.5179 15.928 70.6859 16.32 71.5179 17.104C72.3499 17.872 72.7659 18.96 72.7659 20.368V25.672C72.7659 26.152 72.9899 26.392 73.4379 26.392H74.5179V28H72.8619C72.3339 28 71.9099 27.856 71.5899 27.568C71.2699 27.264 71.1099 26.864 71.1099 26.368V26.248H70.8219C70.6459 26.552 70.4059 26.872 70.1019 27.208C69.8139 27.528 69.4139 27.792 68.9019 28C68.3899 28.224 67.7259 28.336 66.9099 28.336ZM67.1259 26.704C68.2459 26.704 69.1499 26.376 69.8379 25.72C70.5419 25.048 70.8939 24.112 70.8939 22.912V22.648H67.0059C66.2539 22.648 65.6299 22.816 65.1339 23.152C64.6539 23.472 64.4139 23.96 64.4139 24.616C64.4139 25.272 64.6619 25.784 65.1579 26.152C65.6699 26.52 66.3259 26.704 67.1259 26.704ZM80.6611 28C79.9891 28 79.4691 27.816 79.1011 27.448C78.7491 27.08 78.5731 26.576 78.5731 25.936V17.92H75.0451V16.264H78.5731V12.088H80.4691V16.264H84.3091V17.92H80.4691V25.648C80.4691 26.128 80.7011 26.368 81.1651 26.368H83.7811V28H80.6611ZM91.8682 28.216C91.0202 28.216 90.2362 28.032 89.5162 27.664C88.8122 27.296 88.2522 26.752 87.8362 26.032C87.4362 25.296 87.2362 24.408 87.2362 23.368V16.264H89.1322V23.224C89.1322 24.392 89.4202 25.24 89.9962 25.768C90.5882 26.296 91.3802 26.56 92.3722 26.56C93.4922 26.56 94.4122 26.192 95.1322 25.456C95.8522 24.72 96.2122 23.624 96.2122 22.168V16.264H98.1082V28H96.2602V26.008H95.9242C95.6682 26.568 95.2282 27.08 94.6042 27.544C93.9802 27.992 93.0682 28.216 91.8682 28.216ZM102.075 28V16.264H103.923V17.704H104.259C104.467 17.192 104.787 16.816 105.219 16.576C105.651 16.336 106.219 16.216 106.923 16.216H108.315V17.944H106.803C105.955 17.944 105.267 18.184 104.739 18.664C104.227 19.128 103.971 19.856 103.971 20.848V28H102.075ZM116.076 28.336C114.892 28.336 113.852 28.088 112.956 27.592C112.06 27.08 111.364 26.368 110.868 25.456C110.372 24.544 110.124 23.488 110.124 22.288V22C110.124 20.784 110.372 19.72 110.868 18.808C111.364 17.896 112.052 17.192 112.932 16.696C113.812 16.184 114.82 15.928 115.956 15.928C117.06 15.928 118.036 16.168 118.884 16.648C119.732 17.112 120.396 17.784 120.876 18.664C121.356 19.544 121.596 20.576 121.596 21.76V22.624H112.02C112.068 23.888 112.476 24.88 113.244 25.6C114.012 26.304 114.972 26.656 116.124 26.656C117.132 26.656 117.908 26.424 118.452 25.96C118.996 25.496 119.412 24.944 119.7 24.304L121.332 25.096C121.092 25.592 120.756 26.088 120.324 26.584C119.908 27.08 119.356 27.496 118.668 27.832C117.996 28.168 117.132 28.336 116.076 28.336ZM112.044 21.064H119.676C119.612 19.976 119.236 19.128 118.548 18.52C117.876 17.912 117.012 17.608 115.956 17.608C114.884 17.608 114.004 17.912 113.316 18.52C112.628 19.128 112.204 19.976 112.044 21.064ZM131.408 28.336C130.192 28.336 129.24 28.104 128.552 27.64C127.88 27.176 127.392 26.648 127.088 26.056H126.752V28H124.904V11.2H126.8V18.112H127.136C127.328 17.744 127.6 17.4 127.952 17.08C128.304 16.744 128.76 16.472 129.32 16.264C129.896 16.04 130.592 15.928 131.408 15.928C132.432 15.928 133.36 16.176 134.192 16.672C135.04 17.152 135.712 17.848 136.208 18.76C136.704 19.656 136.952 20.728 136.952 21.976V22.288C136.952 23.536 136.696 24.616 136.184 25.528C135.688 26.44 135.016 27.136 134.168 27.616C133.336 28.096 132.416 28.336 131.408 28.336ZM130.904 26.656C132.12 26.656 133.104 26.272 133.856 25.504C134.624 24.72 135.008 23.632 135.008 22.24V22.024C135.008 20.632 134.624 19.552 133.856 18.784C133.104 18 132.12 17.608 130.904 17.608C129.704 17.608 128.712 18 127.928 18.784C127.16 19.552 126.776 20.632 126.776 22.024V22.24C126.776 23.632 127.16 24.72 127.928 25.504C128.712 26.272 129.704 26.656 130.904 26.656ZM143.949 28.336C143.133 28.336 142.389 28.192 141.717 27.904C141.045 27.616 140.517 27.2 140.133 26.656C139.749 26.112 139.557 25.448 139.557 24.664C139.557 23.864 139.749 23.208 140.133 22.696C140.517 22.168 141.045 21.776 141.717 21.52C142.389 21.248 143.141 21.112 143.973 21.112H147.933V20.248C147.933 19.416 147.685 18.76 147.189 18.28C146.709 17.8 145.989 17.56 145.029 17.56C144.085 17.56 143.349 17.792 142.821 18.256C142.293 18.704 141.933 19.312 141.741 20.08L139.965 19.504C140.157 18.848 140.461 18.256 140.877 17.728C141.293 17.184 141.845 16.752 142.533 16.432C143.237 16.096 144.077 15.928 145.053 15.928C146.557 15.928 147.725 16.32 148.557 17.104C149.389 17.872 149.805 18.96 149.805 20.368V25.672C149.805 26.152 150.029 26.392 150.477 26.392H151.557V28H149.901C149.373 28 148.949 27.856 148.629 27.568C148.309 27.264 148.149 26.864 148.149 26.368V26.248H147.861C147.685 26.552 147.445 26.872 147.141 27.208C146.853 27.528 146.453 27.792 145.941 28C145.429 28.224 144.765 28.336 143.949 28.336ZM144.165 26.704C145.285 26.704 146.189 26.376 146.877 25.72C147.581 25.048 147.933 24.112 147.933 22.912V22.648H144.045C143.293 22.648 142.669 22.816 142.173 23.152C141.693 23.472 141.453 23.96 141.453 24.616C141.453 25.272 141.701 25.784 142.197 26.152C142.709 26.52 143.365 26.704 144.165 26.704ZM158.788 28.336C157.332 28.336 156.1 28 155.092 27.328C154.1 26.656 153.5 25.592 153.292 24.136L155.092 23.728C155.22 24.496 155.46 25.104 155.812 25.552C156.164 25.984 156.596 26.296 157.108 26.488C157.636 26.664 158.196 26.752 158.788 26.752C159.668 26.752 160.364 26.576 160.876 26.224C161.388 25.872 161.644 25.4 161.644 24.808C161.644 24.2 161.396 23.776 160.9 23.536C160.42 23.28 159.756 23.072 158.908 22.912L157.924 22.744C157.172 22.616 156.484 22.416 155.86 22.144C155.236 21.872 154.74 21.504 154.372 21.04C154.004 20.576 153.82 19.992 153.82 19.288C153.82 18.232 154.228 17.408 155.044 16.816C155.86 16.224 156.94 15.928 158.284 15.928C159.612 15.928 160.684 16.232 161.5 16.84C162.332 17.432 162.868 18.272 163.108 19.36L161.332 19.816C161.188 18.968 160.844 18.376 160.3 18.04C159.756 17.688 159.084 17.512 158.284 17.512C157.484 17.512 156.852 17.664 156.388 17.968C155.924 18.256 155.692 18.688 155.692 19.264C155.692 19.824 155.908 20.24 156.34 20.512C156.788 20.768 157.38 20.96 158.116 21.088L159.1 21.256C159.932 21.4 160.676 21.6 161.332 21.856C162.004 22.096 162.532 22.448 162.916 22.912C163.316 23.376 163.516 23.984 163.516 24.736C163.516 25.888 163.084 26.776 162.22 27.4C161.372 28.024 160.228 28.336 158.788 28.336ZM172.092 28.336C170.908 28.336 169.868 28.088 168.972 27.592C168.076 27.08 167.38 26.368 166.884 25.456C166.388 24.544 166.14 23.488 166.14 22.288V22C166.14 20.784 166.388 19.72 166.884 18.808C167.38 17.896 168.068 17.192 168.948 16.696C169.828 16.184 170.836 15.928 171.972 15.928C173.076 15.928 174.052 16.168 174.9 16.648C175.748 17.112 176.412 17.784 176.892 18.664C177.372 19.544 177.612 20.576 177.612 21.76V22.624H168.036C168.084 23.888 168.492 24.88 169.26 25.6C170.028 26.304 170.988 26.656 172.14 26.656C173.148 26.656 173.924 26.424 174.468 25.96C175.012 25.496 175.428 24.944 175.716 24.304L177.348 25.096C177.108 25.592 176.772 26.088 176.34 26.584C175.924 27.08 175.372 27.496 174.684 27.832C174.012 28.168 173.148 28.336 172.092 28.336ZM168.06 21.064H175.692C175.628 19.976 175.252 19.128 174.564 18.52C173.892 17.912 173.028 17.608 171.972 17.608C170.9 17.608 170.02 17.912 169.332 18.52C168.644 19.128 168.22 19.976 168.06 21.064Z" fill="#FFFEFA"/>
<defs>
<clipPath id="clip0_847_4423">
<rect width="38.5989" height="40" fill="white"/>
</clipPath>
</defs>
</svg>
