<svg width="109" height="52" viewBox="0 0 109 52" fill="none" xmlns="http://www.w3.org/2000/svg">
<g id="1_Nature4Climate_LockUp_ColorIcon_WhiteText 1" clip-path="url(#clip0_1683_1066)">
<path id="Vector" d="M61.1298 15.776V27.248H60.1826C60.0562 27.2523 59.9307 27.2265 59.8162 27.1728C59.7029 27.1112 59.6046 27.0254 59.5282 26.9216L53.2258 18.8272C53.2418 18.9872 53.2546 19.1344 53.2626 19.2848C53.2706 19.4352 53.2738 19.576 53.2738 19.704V27.248H51.6338V15.776H52.605C52.6729 15.7751 52.7408 15.7788 52.8082 15.7872C52.8635 15.7939 52.9175 15.809 52.9682 15.832C53.0188 15.8551 53.0649 15.8871 53.1042 15.9264C53.1527 15.9766 53.1976 16.03 53.2386 16.0864L59.549 24.1888C59.533 24.0288 59.5218 23.8688 59.5138 23.7088C59.5058 23.5488 59.501 23.4016 59.501 23.264V15.776H61.1298Z" fill="white"/>
<path id="Vector_2" d="M62.5997 20.2528C63.4845 19.413 64.6632 18.9535 65.8829 18.9728C66.3093 18.9656 66.7329 19.0429 67.1293 19.1999C67.4792 19.3415 67.7927 19.5602 68.0461 19.8399C68.2985 20.1267 68.4906 20.4614 68.6109 20.8239C68.7464 21.2314 68.8129 21.6586 68.8077 22.088V27.2495H68.0397C67.9105 27.2575 67.7815 27.2316 67.6653 27.1743C67.5616 27.0987 67.4862 26.9906 67.4509 26.8671L67.2829 26.2063C67.0876 26.383 66.8831 26.5491 66.6701 26.7039C66.4741 26.8477 66.2646 26.972 66.0445 27.0751C65.8233 27.1778 65.5908 27.254 65.3517 27.3024C65.0823 27.3543 64.8085 27.3795 64.5341 27.3776C64.2222 27.3803 63.9119 27.3344 63.6141 27.2415C63.3427 27.1583 63.0919 27.0187 62.8781 26.8319C62.6668 26.6435 62.4997 26.4107 62.3885 26.1504C62.2614 25.8466 62.1997 25.5195 62.2077 25.1904C62.2106 24.8681 62.2972 24.5522 62.4589 24.2736C62.6628 23.9408 62.948 23.6655 63.2877 23.4736C63.7627 23.2032 64.2756 23.0058 64.8093 22.888C65.5749 22.7182 66.3564 22.6302 67.1405 22.6256V22.0847C67.1405 21.4991 67.0157 21.0634 66.7661 20.7775C66.5165 20.4917 66.1501 20.3482 65.6669 20.3471C65.3856 20.3399 65.1052 20.3815 64.8381 20.4704C64.6367 20.5427 64.4419 20.6321 64.2557 20.7376C64.0957 20.8335 63.9453 20.9215 63.8173 21.0047C63.6969 21.0848 63.5555 21.1276 63.4109 21.128C63.3043 21.1315 63.1996 21.0994 63.1133 21.0367C63.0307 20.9758 62.9615 20.8984 62.9101 20.8095L62.5997 20.2528ZM67.1421 23.6943C66.6241 23.7075 66.1076 23.7572 65.5965 23.8432C65.2455 23.8993 64.9027 23.9981 64.5757 24.1375C64.3541 24.2271 64.1602 24.374 64.0141 24.5632C63.9022 24.7218 63.8423 24.9114 63.8429 25.1056C63.8383 25.2735 63.8699 25.4405 63.9357 25.5951C63.9925 25.7254 64.0798 25.84 64.1901 25.9295C64.3027 26.0197 64.433 26.0851 64.5725 26.1215C64.7292 26.1625 64.8906 26.1824 65.0525 26.1808C65.4512 26.1917 65.8466 26.1055 66.2045 25.9295C66.5546 25.7403 66.8709 25.4943 67.1405 25.2015L67.1421 23.6943Z" fill="white"/>
<path id="Vector_3" d="M72.7695 27.3761C72.0964 27.3761 71.5775 27.1863 71.2127 26.8065C70.8479 26.4268 70.666 25.8935 70.6671 25.2065V20.4689H69.7743C69.6835 20.4708 69.5955 20.4382 69.5279 20.3777C69.4914 20.3423 69.4632 20.2993 69.4453 20.2517C69.4273 20.2041 69.42 20.1532 69.4239 20.1025V19.4097L70.7391 19.2177L71.1135 16.8673C71.1354 16.7825 71.1822 16.7062 71.2479 16.6481C71.3194 16.5899 71.4101 16.5602 71.5023 16.5649H72.3791V19.2401H74.6335V20.4753H72.3791V25.0881C72.3621 25.3306 72.4395 25.5702 72.5951 25.7569C72.6682 25.8346 72.7573 25.8955 72.8561 25.9355C72.955 25.9756 73.0613 25.9938 73.1679 25.9889C73.2842 25.9917 73.4001 25.9738 73.5103 25.9361C73.5958 25.9062 73.6787 25.8693 73.7583 25.8257L73.9375 25.7137C73.9798 25.6812 74.0313 25.6628 74.0847 25.6609C74.1343 25.6629 74.1824 25.679 74.2232 25.7073C74.264 25.7357 74.2959 25.7751 74.3151 25.8209L74.8255 26.6577C74.5502 26.8969 74.2305 27.0796 73.8847 27.1953C73.5257 27.3176 73.1487 27.3788 72.7695 27.3761Z" fill="white"/>
<path id="Vector_4" d="M82.4305 19.1216V27.248H81.3953C81.296 27.256 81.1972 27.2281 81.1167 27.1693C81.0363 27.1106 80.9796 27.025 80.9569 26.928L80.8289 26.1712C80.6623 26.3492 80.4826 26.5145 80.2913 26.6656C80.1041 26.813 79.9026 26.9411 79.6897 27.048C79.4727 27.1559 79.244 27.2386 79.0081 27.2944C78.7539 27.3547 78.4934 27.3843 78.2321 27.3824C77.8279 27.39 77.4265 27.3143 77.0529 27.16C76.7229 27.0184 76.43 26.8027 76.1969 26.5296C75.9566 26.2441 75.7784 25.9117 75.6737 25.5536C75.5533 25.1465 75.4945 24.7237 75.4993 24.2992V19.1216H77.2129V24.2928C77.2129 24.84 77.3377 25.264 77.5905 25.5728C77.8433 25.8816 78.2305 26.0256 78.7425 26.0256C79.1099 26.0283 79.4722 25.9398 79.7969 25.768C80.1409 25.5819 80.4523 25.3409 80.7185 25.0544V19.1216H82.4305Z" fill="white"/>
<path id="Vector_5" d="M85.4927 20.6269C85.7105 20.1606 86.0259 19.7465 86.4175 19.4125C86.7844 19.1155 87.2448 18.9584 87.7167 18.9693C87.8829 18.9685 88.0485 18.9889 88.2095 19.0301C88.3566 19.0664 88.4966 19.127 88.6239 19.2093L88.5055 20.5005C88.4931 20.5722 88.4578 20.6379 88.4047 20.6877C88.3522 20.7239 88.2892 20.7419 88.2255 20.7389C88.1103 20.7347 87.9957 20.7202 87.8831 20.6957C87.7282 20.665 87.5706 20.65 87.4127 20.6509C87.1948 20.6466 86.978 20.6818 86.7727 20.7549C86.5906 20.8233 86.4233 20.9259 86.2799 21.0573C86.1269 21.1964 85.9963 21.3583 85.8927 21.5373C85.7735 21.7471 85.6698 21.9652 85.5823 22.1901V27.2413H83.8799V19.1213H84.8767C85.0094 19.1073 85.1427 19.1426 85.2511 19.2205C85.3337 19.3186 85.384 19.4399 85.3951 19.5677L85.4927 20.6269Z" fill="white"/>
<path id="Vector_6" d="M90.1936 23.32C90.2053 23.7286 90.2781 24.1331 90.4096 24.52C90.5149 24.83 90.6814 25.1156 90.8992 25.36C91.1006 25.5816 91.3518 25.7521 91.632 25.8576C91.9368 25.9689 92.2596 26.0231 92.584 26.0176C92.8778 26.0232 93.1707 25.9844 93.4528 25.9024C93.673 25.8359 93.8871 25.7508 94.0928 25.648C94.2736 25.5552 94.4272 25.4704 94.5552 25.3936C94.6591 25.3233 94.7803 25.2828 94.9056 25.2768C94.9682 25.2738 95.0305 25.2869 95.0866 25.3149C95.1426 25.3429 95.1905 25.3849 95.2256 25.4368L95.7056 26.0656C95.5089 26.3008 95.2781 26.5052 95.0208 26.672C94.766 26.8363 94.4933 26.971 94.208 27.0736C93.9211 27.1771 93.6248 27.2521 93.3232 27.2976C93.0309 27.3417 92.7357 27.3641 92.44 27.3648C91.9047 27.3699 91.3733 27.2738 90.8736 27.0816C90.4011 26.8983 89.9742 26.6144 89.6224 26.2496C89.2538 25.8583 88.9714 25.3938 88.7936 24.8864C88.5852 24.2847 88.4845 23.6511 88.496 23.0144C88.4912 22.4769 88.5817 21.9428 88.7632 21.4368C88.9301 20.9633 89.1901 20.5281 89.528 20.1568C89.8673 19.7905 90.2793 19.499 90.7376 19.3008C91.2474 19.0824 91.7974 18.9734 92.352 18.9808C92.8248 18.9758 93.2944 19.0577 93.7376 19.2224C94.1515 19.3775 94.5266 19.6211 94.8368 19.936C95.1553 20.2653 95.4011 20.6578 95.5584 21.088C95.7387 21.5841 95.8266 22.1091 95.8176 22.6368C95.8338 22.8195 95.8035 23.0034 95.7296 23.1712C95.6925 23.2195 95.6435 23.2573 95.5874 23.2808C95.5313 23.3044 95.47 23.3129 95.4096 23.3056L90.1936 23.32ZM94.28 22.2688C94.2821 21.9973 94.2405 21.7272 94.1568 21.4688C94.079 21.2337 93.9556 21.0162 93.7936 20.8288C93.6301 20.6432 93.4273 20.4962 93.2 20.3984C92.9419 20.2896 92.6641 20.2351 92.384 20.2384C91.7621 20.2384 91.2731 20.4166 90.9168 20.7728C90.5605 21.1291 90.3349 21.6283 90.24 22.2704L94.28 22.2688Z" fill="white"/>
<path id="Vector_7" d="M59.0895 37.0814V38.0702C59.0914 38.161 59.0588 38.249 58.9983 38.3166C58.9628 38.3531 58.9198 38.3813 58.8722 38.3992C58.8247 38.4172 58.7738 38.4245 58.7231 38.4206H57.5055V41.3198H56.0143V38.4206H51.0543C50.9383 38.4238 50.8249 38.3858 50.7343 38.3134C50.6501 38.245 50.5901 38.1513 50.5631 38.0462L50.3887 37.1694L55.8943 29.8398H57.5039V37.0814H59.0895ZM56.0143 37.0814V32.891C56.0164 32.5235 56.0404 32.1565 56.0863 31.7918L52.2303 37.0814H56.0143Z" fill="white"/>
<path id="Vector_8" d="M68.3168 38.7598C68.3666 38.76 68.4157 38.7707 68.461 38.7914C68.5063 38.8121 68.5466 38.8423 68.5792 38.8798L69.32 39.6798C68.8546 40.2413 68.2653 40.6871 67.5984 40.9822C66.8277 41.3084 65.9966 41.4671 65.16 41.4478C64.38 41.4597 63.6058 41.3122 62.8848 41.0142C62.2304 40.7376 61.6424 40.3247 61.16 39.803C60.6706 39.2664 60.2951 38.6361 60.056 37.9502C59.7914 37.1897 59.6609 36.389 59.6704 35.5838C59.661 34.7756 59.7999 33.9725 60.08 33.2142C60.3355 32.5238 60.7285 31.8924 61.2352 31.3582C61.7391 30.8348 62.3475 30.4232 63.0208 30.1502C63.7481 29.857 64.5263 29.7107 65.3104 29.7198C66.0594 29.705 66.8038 29.8411 67.4992 30.1198C68.1115 30.3731 68.6723 30.7364 69.1536 31.1918L68.5392 32.059C68.4969 32.1174 68.4456 32.1687 68.3872 32.211C68.3168 32.2576 68.2331 32.2801 68.1488 32.275C68.0159 32.2648 67.8895 32.2134 67.7872 32.1278C67.6204 32.0093 67.4473 31.8998 67.2688 31.7998C67.0175 31.6665 66.7532 31.5593 66.48 31.4798C66.0947 31.3729 65.6958 31.3233 65.296 31.3326C64.7801 31.327 64.2682 31.4244 63.7904 31.619C63.3399 31.8067 62.9371 32.0926 62.6112 32.4558C62.2678 32.8461 62.0066 33.3016 61.8432 33.795C61.6513 34.3726 61.5583 34.9785 61.568 35.587C61.5583 36.2007 61.6552 36.8114 61.8544 37.3918C62.0261 37.8861 62.2942 38.3413 62.6432 38.731C62.9715 39.0903 63.3738 39.3742 63.8224 39.563C64.284 39.7557 64.7798 39.8532 65.28 39.8494C65.5667 39.8512 65.8532 39.8341 66.1376 39.7982C66.3748 39.7666 66.6081 39.7103 66.8336 39.6302C67.0438 39.5552 67.2455 39.4581 67.4352 39.3406C67.6354 39.2149 67.8234 39.0708 67.9968 38.9102C68.0804 38.8212 68.1949 38.7674 68.3168 38.7598Z" fill="white"/>
<path id="Vector_9" d="M71.8369 29.5293V41.3197H70.1201V29.5293H71.8369Z" fill="white"/>
<path id="Vector_10" d="M75.5021 30.741C75.5026 30.8919 75.4715 31.0412 75.4109 31.1794C75.3503 31.3145 75.2652 31.4371 75.1597 31.541C75.0521 31.6452 74.9263 31.7287 74.7885 31.7874C74.6469 31.8498 74.4936 31.8814 74.3389 31.8802C74.1893 31.8814 74.0413 31.8498 73.9053 31.7874C73.7722 31.7288 73.6516 31.6452 73.5501 31.541C73.4481 31.4359 73.3658 31.3134 73.3069 31.1794C73.2468 31.0396 73.2158 30.8891 73.2158 30.737C73.2158 30.5849 73.2468 30.4343 73.3069 30.2946C73.3657 30.16 73.4481 30.037 73.5501 29.9314C73.652 29.8277 73.7725 29.7441 73.9053 29.685C74.0416 29.6239 74.1895 29.5928 74.3389 29.5938C74.4935 29.5928 74.6465 29.6239 74.7885 29.685C74.926 29.7443 75.0517 29.8277 75.1597 29.9314C75.2652 30.0359 75.3504 30.159 75.4109 30.2946C75.4723 30.4353 75.5034 30.5874 75.5021 30.741ZM75.2157 33.1938V41.3202H73.5021V33.1938H75.2157Z" fill="white"/>
<path id="Vector_11" d="M76.8477 41.3201V33.1937H77.8845C77.986 33.185 78.0871 33.2135 78.1692 33.2739C78.2513 33.3342 78.3088 33.4222 78.3309 33.5217L78.4413 34.2305C78.5856 34.0654 78.74 33.9093 78.9037 33.7633C79.0624 33.6245 79.2344 33.5018 79.4173 33.3969C79.6042 33.2953 79.8023 33.2159 80.0077 33.1601C80.2299 33.1008 80.4592 33.0717 80.6893 33.0737C80.9326 33.0711 81.1747 33.1084 81.4061 33.1841C81.6164 33.2548 81.8121 33.3633 81.9837 33.5041C82.1543 33.6465 82.3007 33.8156 82.4173 34.0049C82.5453 34.2122 82.6469 34.4347 82.7197 34.6673C82.8324 34.4016 82.9887 34.1567 83.1821 33.9425C83.3611 33.7447 83.5713 33.5777 83.8045 33.4481C84.0326 33.3198 84.2777 33.2245 84.5325 33.1649C84.7899 33.1041 85.0535 33.0735 85.3181 33.0737C85.7165 33.067 86.1125 33.1371 86.4845 33.2801C86.8165 33.4111 87.1138 33.6169 87.3533 33.8817C87.5989 34.1596 87.7822 34.487 87.8909 34.8417C88.019 35.2654 88.0811 35.7063 88.0749 36.1489V41.3201H86.3613V36.1505C86.3613 35.5761 86.2381 35.1457 85.9901 34.8561C85.7421 34.5665 85.3789 34.4209 84.8957 34.4209C84.6857 34.42 84.4774 34.458 84.2813 34.5329C84.0935 34.6029 83.9228 34.7119 83.7805 34.8529C83.6305 35.0059 83.5148 35.1892 83.4413 35.3905C83.3551 35.6322 83.3133 35.8875 83.3181 36.1441V41.3201H81.6045V36.1505C81.6045 35.5553 81.4861 35.1185 81.2461 34.8401C81.0061 34.5617 80.6573 34.4209 80.1949 34.4209C79.8832 34.4192 79.5771 34.5033 79.3101 34.6641C79.0234 34.8403 78.7699 35.0656 78.5613 35.3297V41.3201H76.8477Z" fill="white"/>
<path id="Vector_12" d="M89.3567 34.3266C90.2407 33.4856 91.4199 33.0259 92.6399 33.0466C93.0663 33.0385 93.4901 33.1157 93.8863 33.2738C94.2364 33.4149 94.5499 33.6338 94.8031 33.9138C95.0562 34.2 95.2483 34.5348 95.3679 34.8978C95.5021 35.3049 95.5681 35.7315 95.5631 36.1602V41.3202H94.7983C94.669 41.3285 94.5399 41.3025 94.4239 41.245C94.3198 41.1697 94.2443 41.0614 94.2095 40.9378L94.0495 40.277C93.8542 40.4536 93.6496 40.6197 93.4367 40.7746C93.2405 40.918 93.031 41.0423 92.8111 41.1458C92.5897 41.2481 92.3572 41.3244 92.1183 41.373C91.8489 41.4249 91.575 41.4501 91.3007 41.4482C90.9889 41.4508 90.6786 41.4055 90.3807 41.3138C90.1088 41.2296 89.8576 41.0895 89.6431 40.9026C89.4321 40.7138 89.265 40.4812 89.1535 40.221C89.0276 39.9169 88.9666 39.5899 88.9743 39.261C88.9763 38.9386 89.0629 38.6225 89.2255 38.3442C89.4288 38.011 89.7141 37.7356 90.0543 37.5442C90.5286 37.2725 91.0418 37.075 91.5759 36.9586C92.3414 36.788 93.1228 36.6995 93.9071 36.6946V36.1538C93.9071 35.5698 93.7823 35.133 93.5311 34.8466C93.2799 34.5602 92.9151 34.4162 92.4319 34.4162C92.1506 34.409 91.8701 34.4507 91.6031 34.5394C91.4023 34.612 91.208 34.7014 91.0223 34.8066C90.8623 34.9026 90.7119 34.9922 90.5839 35.0738C90.4636 35.1542 90.3222 35.1971 90.1775 35.197C90.0705 35.1999 89.9655 35.1678 89.8783 35.1058C89.7961 35.0443 89.727 34.9671 89.6751 34.8786L89.3567 34.3266ZM93.8991 37.7682C93.3805 37.7801 92.8634 37.8293 92.3519 37.9154C92.0014 37.9717 91.6592 38.0705 91.3327 38.2098C91.1108 38.299 90.9169 38.4459 90.7711 38.6354C90.6591 38.794 90.5993 38.9836 90.5999 39.1778C90.5952 39.3456 90.6263 39.5125 90.6911 39.6674C90.7475 39.7983 90.8354 39.9132 90.9471 40.0018C91.0596 40.0919 91.1899 40.1574 91.3295 40.1938C91.4861 40.2348 91.6475 40.2548 91.8095 40.253C92.2077 40.2639 92.6025 40.1777 92.9599 40.0018C93.3105 39.8126 93.6273 39.5666 93.8975 39.2738L93.8991 37.7682Z" fill="white"/>
<path id="Vector_13" d="M99.5311 41.4481C98.8559 41.4481 98.3365 41.2582 97.9727 40.8785C97.609 40.4987 97.4271 39.9654 97.4271 39.2785V34.5409H96.5359C96.4447 34.5427 96.3562 34.5101 96.2879 34.4497C96.2521 34.4139 96.2243 34.3707 96.2067 34.3232C96.189 34.2757 96.1818 34.225 96.1855 34.1745V33.4801L97.4991 33.2881L97.8735 30.9377C97.8972 30.8532 97.9443 30.7771 98.0095 30.7185C98.0811 30.6602 98.1718 30.6305 98.2639 30.6353H99.1407V33.3041H101.395V34.5393H99.1407V39.1521C99.1238 39.3945 99.2012 39.6341 99.3567 39.8209C99.4299 39.8985 99.5189 39.9594 99.6178 39.9994C99.7166 40.0395 99.823 40.0577 99.9295 40.0528C100.046 40.0554 100.162 40.0376 100.272 40.0001C100.357 39.9711 100.44 39.9341 100.518 39.8897C100.589 39.8497 100.648 39.8128 100.699 39.7776C100.742 39.7455 100.793 39.7276 100.846 39.7265C100.896 39.7284 100.944 39.7445 100.985 39.7728C101.026 39.8012 101.058 39.8406 101.077 39.8865L101.587 40.7233C101.312 40.9624 100.992 41.1451 100.646 41.2609C100.288 41.3852 99.9107 41.4485 99.5311 41.4481Z" fill="white"/>
<path id="Vector_14" d="M103.411 37.3939C103.422 37.802 103.495 38.2061 103.627 38.5923C103.732 38.9023 103.899 39.1879 104.117 39.4323C104.318 39.6543 104.569 39.8254 104.85 39.9315C105.157 40.0437 105.482 40.098 105.81 40.0915C106.103 40.0974 106.396 40.058 106.678 39.9747C106.899 39.9082 107.113 39.8231 107.318 39.7203C107.499 39.6275 107.653 39.5427 107.781 39.4659C107.885 39.3966 108.006 39.3568 108.131 39.3507C108.194 39.3476 108.256 39.3608 108.312 39.3888C108.368 39.4168 108.416 39.4588 108.451 39.5107L108.931 40.1395C108.734 40.3747 108.504 40.5791 108.246 40.7459C107.992 40.9104 107.719 41.0452 107.434 41.1475C107.147 41.2517 106.85 41.3267 106.549 41.3715C106.256 41.4156 105.96 41.4381 105.664 41.4387C105.129 41.4439 104.598 41.3478 104.099 41.1555C103.626 40.9731 103.199 40.6891 102.848 40.3235C102.48 39.9323 102.198 39.4686 102.019 38.9619C101.811 38.3596 101.71 37.7254 101.722 37.0883C101.717 36.5509 101.807 36.017 101.987 35.5107C102.155 35.0376 102.415 34.6024 102.752 34.2307C103.092 33.8642 103.504 33.5722 103.963 33.3731C104.473 33.1546 105.023 33.0455 105.578 33.0531C106.05 33.0482 106.52 33.1306 106.963 33.2963C107.377 33.4502 107.753 33.6933 108.062 34.0083C108.381 34.3376 108.627 34.7301 108.784 35.1603C108.964 35.6565 109.052 36.1814 109.043 36.7091C109.059 36.8918 109.028 37.0755 108.955 37.2435C108.918 37.2918 108.869 37.3297 108.813 37.3536C108.757 37.3774 108.696 37.3863 108.635 37.3795L103.411 37.3939ZM107.499 36.3411C107.502 36.0694 107.459 35.7992 107.374 35.5411C107.298 35.3057 107.175 35.088 107.013 34.9011C106.85 34.7145 106.647 34.5673 106.419 34.4707C106.161 34.361 105.882 34.3065 105.602 34.3107C104.981 34.3107 104.492 34.4888 104.136 34.8451C103.754 35.2581 103.517 35.7835 103.459 36.3427L107.499 36.3411Z" fill="white"/>
<path id="Vector_15" d="M12.8398 51.8801C12.5038 51.6449 12.155 51.4001 11.811 51.1376C-0.635361 41.6001 -3.00016 23.7201 6.53264 11.2673C8.80385 8.3026 11.6368 5.81432 14.8696 3.94451C18.1025 2.0747 21.672 0.859967 25.3743 0.369672C29.0766 -0.120623 32.8393 0.123122 36.4474 1.08699C40.0555 2.05086 43.4384 3.71597 46.403 5.98725C46.891 6.36165 47.3774 6.76165 47.843 7.17285L46.3406 8.89125C45.907 8.51205 45.459 8.14405 45.0094 7.80005C33.5662 -0.971146 17.115 1.20805 8.34384 12.6561C-0.427362 24.1041 1.75184 40.5537 13.1998 49.3201C13.5054 49.5537 13.8174 49.7729 14.1486 50.0033L12.8398 51.8801Z" fill="#00CC99"/>
<path id="Vector_16" d="M28.9893 50.2125C25.3921 50.2103 21.8524 49.3094 18.6917 47.5917C15.8734 46.0638 13.4358 43.9199 11.5605 41.3197L13.4085 39.9805C15.0817 42.3064 17.2585 44.2246 19.7765 45.5917C20.587 46.0313 21.4275 46.4131 22.2917 46.7341C25.254 47.8338 28.4418 48.1855 31.5726 47.758C34.7033 47.3304 37.6801 46.1367 40.2389 44.2829C40.4421 44.1373 40.6581 43.9709 40.9221 43.7613L42.3413 45.5501C42.0501 45.7805 41.8085 45.9661 41.5781 46.1325C37.9163 48.7843 33.5106 50.2122 28.9893 50.2125Z" fill="#4FB8DA"/>
<path id="Vector_17" d="M9.54258 37.8995C7.39774 33.3645 6.90715 28.2219 8.15583 23.3631C9.4045 18.5042 12.3138 14.2354 16.3794 11.2963C16.725 11.0467 17.0994 10.7955 17.5522 10.5107L18.7682 12.4419C18.357 12.7011 18.0226 12.9219 17.717 13.1459C14.0822 15.7717 11.4811 19.5867 10.3647 23.9295C9.24831 28.2723 9.68711 32.8688 11.605 36.9219L9.54258 37.8995Z" fill="#4FB8DA"/>
<path id="Vector_18" d="M23.0947 42.1663L22.9203 42.0878C22.7779 42.0286 22.6371 41.9678 22.4979 41.8974C20.735 41.0383 19.1603 39.8374 17.8654 38.3645C16.5705 36.8917 15.5811 35.1762 14.9548 33.3177C14.3285 31.4592 14.0778 29.4949 14.2171 27.5386C14.3564 25.5824 14.8831 23.6734 15.7664 21.9225C16.6498 20.1715 17.8723 18.6136 19.3629 17.3391C20.8535 16.0646 22.5824 15.099 24.4494 14.4984C26.3163 13.8978 28.2839 13.6741 30.238 13.8404C32.1921 14.0067 34.0937 14.5596 35.8323 15.467C36.0819 15.5934 36.3123 15.7263 36.5235 15.8559L36.6835 15.947L35.5251 17.9135L35.3651 17.8175C35.1731 17.7039 34.9907 17.5951 34.8115 17.4975C31.847 16.0012 28.4096 15.7439 25.2554 16.7821C22.1012 17.8203 19.4886 20.069 17.9923 23.0335C16.4961 25.9979 16.2388 29.4354 17.277 32.5896C18.3152 35.7438 20.5638 38.3564 23.5283 39.8526C23.6211 39.899 23.7155 39.9374 23.8099 39.9774L24.0419 40.0767L23.0947 42.1663Z" fill="#2078AC"/>
<path id="Vector_19" d="M28.7857 36.7489C26.6778 36.7478 24.6549 35.9179 23.1536 34.4382C21.6523 32.9585 20.7932 30.9477 20.7617 28.8401C20.7617 28.6913 20.7617 28.5441 20.7745 28.3985V28.3137L23.0545 28.4257V28.5201C23.0545 28.6145 23.0433 28.7073 23.0449 28.8033C23.0519 29.5608 23.2085 30.3095 23.5059 31.0062C23.8034 31.703 24.2356 32.334 24.7778 32.8631C25.3201 33.3921 25.9616 33.8087 26.6654 34.0889C27.3693 34.369 28.1216 34.5072 28.8791 34.4955C29.6366 34.4838 30.3842 34.3224 31.0791 34.0206C31.774 33.7189 32.4023 33.2826 32.9279 32.7371C33.4535 32.1915 33.8661 31.5474 34.1418 30.8418C34.4175 30.1362 34.551 29.3831 34.5345 28.6257C34.5345 28.5857 34.5345 28.5473 34.5345 28.5073C34.5345 28.4673 34.5265 28.4161 34.5233 28.3713L36.8017 28.2305V28.3169C36.8097 28.4081 36.8161 28.4977 36.8177 28.5905C36.8351 29.6453 36.6444 30.6931 36.2566 31.6742C35.8688 32.6553 35.2914 33.5503 34.5575 34.3081C33.8236 35.0659 32.9476 35.6717 31.9795 36.0908C31.0113 36.5098 29.9701 36.734 28.9153 36.7505L28.7857 36.7489Z" fill="#D8D5CB"/>
<path id="Vector_20" d="M28.7891 30.5104C30.0059 30.5104 30.9923 29.524 30.9923 28.3072C30.9923 27.0904 30.0059 26.104 28.7891 26.104C27.5723 26.104 26.5859 27.0904 26.5859 28.3072C26.5859 29.524 27.5723 30.5104 28.7891 30.5104Z" fill="#E23248"/>
</g>
<defs>
<clipPath id="clip0_1683_1066">
<rect width="109" height="52" fill="white"/>
</clipPath>
</defs>
</svg>
