<svg width="39" height="40" viewBox="0 0 39 40" fill="none" xmlns="http://www.w3.org/2000/svg">
<g id="Frame" clip-path="url(#clip0_527_834)">
<path id="Vector" d="M19.2566 22.0365C20.2441 22.0365 21.0445 21.236 21.0445 20.2486C21.0445 19.2612 20.2441 18.4607 19.2566 18.4607C18.2692 18.4607 17.4688 19.2612 17.4688 20.2486C17.4688 21.236 18.2692 22.0365 19.2566 22.0365Z" fill="#E23248"/>
<path id="Vector_2" d="M14.4069 15.054C15.1968 15.054 15.8372 14.4136 15.8372 13.6237C15.8372 12.8337 15.1968 12.1934 14.4069 12.1934C13.6169 12.1934 12.9766 12.8337 12.9766 13.6237C12.9766 14.4136 13.6169 15.054 14.4069 15.054Z" fill="#D9D6CC"/>
<path id="Vector_3" d="M2.0512 16.7543C3.18404 16.7543 4.1024 15.8359 4.1024 14.7031C4.1024 13.5702 3.18404 12.6519 2.0512 12.6519C0.918353 12.6519 0 13.5702 0 14.7031C0 15.8359 0.918353 16.7543 2.0512 16.7543Z" fill="#40BB93"/>
<path id="Vector_4" d="M2.10044 27.5564C3.06633 27.5564 3.84933 26.7734 3.84933 25.8075C3.84933 24.8416 3.06633 24.0586 2.10044 24.0586C1.13456 24.0586 0.351562 24.8416 0.351562 25.8075C0.351562 26.7734 1.13456 27.5564 2.10044 27.5564Z" fill="#40BB93"/>
<path id="Vector_5" d="M6.3932 21.679C7.18314 21.679 7.82352 21.0386 7.82352 20.2487C7.82352 19.4587 7.18314 18.8184 6.3932 18.8184C5.60326 18.8184 4.96289 19.4587 4.96289 20.2487C4.96289 21.0386 5.60326 21.679 6.3932 21.679Z" fill="#4FB9DB"/>
<path id="Vector_6" d="M8.92055 14.1602C9.71049 14.1602 10.3509 13.5198 10.3509 12.7299C10.3509 11.9399 9.71049 11.2996 8.92055 11.2996C8.13061 11.2996 7.49023 11.9399 7.49023 12.7299C7.49023 13.5198 8.13061 14.1602 8.92055 14.1602Z" fill="#2378AC"/>
<path id="Vector_7" d="M11.4659 18.8899C12.0674 18.8899 12.5549 18.4023 12.5549 17.8009C12.5549 17.1995 12.0674 16.7119 11.4659 16.7119C10.8645 16.7119 10.377 17.1995 10.377 17.8009C10.377 18.4023 10.8645 18.8899 11.4659 18.8899Z" fill="#D9D6CC"/>
<path id="Vector_8" d="M19.2567 40.0031C20.2226 40.0031 21.0056 39.2201 21.0056 38.2543C21.0056 37.2884 20.2226 36.5054 19.2567 36.5054C18.2908 36.5054 17.5078 37.2884 17.5078 38.2543C17.5078 39.2201 18.2908 40.0031 19.2567 40.0031Z" fill="#40BB93"/>
<path id="Vector_9" d="M36.7391 27.5564C37.705 27.5564 38.488 26.7734 38.488 25.8075C38.488 24.8416 37.705 24.0586 36.7391 24.0586C35.7732 24.0586 34.9902 24.8416 34.9902 25.8075C34.9902 26.7734 35.7732 27.5564 36.7391 27.5564Z" fill="#40BB93"/>
<path id="Vector_10" d="M29.9481 7.3337C30.914 7.3337 31.697 6.5507 31.697 5.58482C31.697 4.61894 30.914 3.83594 29.9481 3.83594C28.9822 3.83594 28.1992 4.61894 28.1992 5.58482C28.1992 6.5507 28.9822 7.3337 29.9481 7.3337Z" fill="#40BB93"/>
<path id="Vector_11" d="M8.72154 7.3337C9.68742 7.3337 10.4704 6.5507 10.4704 5.58482C10.4704 4.61894 9.68742 3.83594 8.72154 3.83594C7.75566 3.83594 6.97266 4.61894 6.97266 5.58482C6.97266 6.5507 7.75566 7.3337 8.72154 7.3337Z" fill="#40BB93"/>
<path id="Vector_12" d="M8.72112 36.8338C9.85397 36.8338 10.7723 35.9155 10.7723 34.7826C10.7723 33.6498 9.85397 32.7314 8.72112 32.7314C7.58827 32.7314 6.66992 33.6498 6.66992 34.7826C6.66992 35.9155 7.58827 36.8338 8.72112 36.8338Z" fill="#40BB93"/>
<path id="Vector_13" d="M29.9496 36.8338C31.0825 36.8338 32.0008 35.9155 32.0008 34.7826C32.0008 33.6498 31.0825 32.7314 29.9496 32.7314C28.8168 32.7314 27.8984 33.6498 27.8984 34.7826C27.8984 35.9155 28.8168 36.8338 29.9496 36.8338Z" fill="#40BB93"/>
<path id="Vector_14" d="M36.5473 16.569C37.6801 16.569 38.5985 15.6506 38.5985 14.5178C38.5985 13.3849 37.6801 12.4666 36.5473 12.4666C35.4144 12.4666 34.4961 13.3849 34.4961 14.5178C34.4961 15.6506 35.4144 16.569 36.5473 16.569Z" fill="#40BB93"/>
<path id="Vector_15" d="M19.2563 4.1024C20.3891 4.1024 21.3075 3.18404 21.3075 2.0512C21.3075 0.918353 20.3891 0 19.2563 0C18.1234 0 17.2051 0.918353 17.2051 2.0512C17.2051 3.18404 18.1234 4.1024 19.2563 4.1024Z" fill="#40BB93"/>
<path id="Vector_16" d="M15.3014 9.46609C16.0913 9.46609 16.7317 8.82572 16.7317 8.03578C16.7317 7.24584 16.0913 6.60547 15.3014 6.60547C14.5115 6.60547 13.8711 7.24584 13.8711 8.03578C13.8711 8.82572 14.5115 9.46609 15.3014 9.46609Z" fill="#4FB9DB"/>
<path id="Vector_17" d="M29.6139 14.1602C30.4038 14.1602 31.0442 13.5198 31.0442 12.7299C31.0442 11.9399 30.4038 11.2996 29.6139 11.2996C28.824 11.2996 28.1836 11.9399 28.1836 12.7299C28.1836 13.5198 28.824 14.1602 29.6139 14.1602Z" fill="#4FB9DB"/>
<path id="Vector_18" d="M29.6139 29.2239C30.4038 29.2239 31.0442 28.5835 31.0442 27.7936C31.0442 27.0037 30.4038 26.3633 29.6139 26.3633C28.824 26.3633 28.1836 27.0037 28.1836 27.7936C28.1836 28.5835 28.824 29.2239 29.6139 29.2239Z" fill="#4FB9DB"/>
<path id="Vector_19" d="M15.3014 33.8821C16.0913 33.8821 16.7317 33.2417 16.7317 32.4518C16.7317 31.6619 16.0913 31.0215 15.3014 31.0215C14.5115 31.0215 13.8711 31.6619 13.8711 32.4518C13.8711 33.2417 14.5115 33.8821 15.3014 33.8821Z" fill="#4FB9DB"/>
<path id="Vector_20" d="M24.0788 15.2393C24.8687 15.2393 25.5091 14.5989 25.5091 13.809C25.5091 13.019 24.8687 12.3787 24.0788 12.3787C23.2888 12.3787 22.6484 13.019 22.6484 13.809C22.6484 14.5989 23.2888 15.2393 24.0788 15.2393Z" fill="#D9D6CC"/>
<path id="Vector_21" d="M27.0905 24.3577C27.8804 24.3577 28.5208 23.7173 28.5208 22.9274C28.5208 22.1374 27.8804 21.4971 27.0905 21.4971C26.3005 21.4971 25.6602 22.1374 25.6602 22.9274C25.6602 23.7173 26.3005 24.3577 27.0905 24.3577Z" fill="#D9D6CC"/>
<path id="Vector_22" d="M19.2565 30.1145C20.0464 30.1145 20.6868 29.4742 20.6868 28.6842C20.6868 27.8943 20.0464 27.2539 19.2565 27.2539C18.4665 27.2539 17.8262 27.8943 17.8262 28.6842C17.8262 29.4742 18.4665 30.1145 19.2565 30.1145Z" fill="#D9D6CC"/>
<path id="Vector_23" d="M11.4655 24.3577C12.2554 24.3577 12.8958 23.7173 12.8958 22.9274C12.8958 22.1374 12.2554 21.4971 11.4655 21.4971C10.6755 21.4971 10.0352 22.1374 10.0352 22.9274C10.0352 23.7173 10.6755 24.3577 11.4655 24.3577Z" fill="#D9D6CC"/>
<path id="Vector_24" d="M8.92055 29.2239C9.71049 29.2239 10.3509 28.5835 10.3509 27.7936C10.3509 27.0037 9.71049 26.3633 8.92055 26.3633C8.13061 26.3633 7.49023 27.0037 7.49023 27.7936C7.49023 28.5835 8.13061 29.2239 8.92055 29.2239Z" fill="#2378AC"/>
<path id="Vector_25" d="M23.1881 33.8821C23.9781 33.8821 24.6184 33.2417 24.6184 32.4518C24.6184 31.6619 23.9781 31.0215 23.1881 31.0215C22.3982 31.0215 21.7578 31.6619 21.7578 32.4518C21.7578 33.2417 22.3982 33.8821 23.1881 33.8821Z" fill="#2378AC"/>
<path id="Vector_26" d="M32.1276 21.679C32.9175 21.679 33.5579 21.0386 33.5579 20.2487C33.5579 19.4587 32.9175 18.8184 32.1276 18.8184C31.3376 18.8184 30.6973 19.4587 30.6973 20.2487C30.6973 21.0386 31.3376 21.679 32.1276 21.679Z" fill="#2378AC"/>
<path id="Vector_27" d="M23.3659 9.46609C24.1558 9.46609 24.7962 8.82572 24.7962 8.03578C24.7962 7.24584 24.1558 6.60547 23.3659 6.60547C22.5759 6.60547 21.9355 7.24584 21.9355 8.03578C21.9355 8.82572 22.5759 9.46609 23.3659 9.46609Z" fill="#2378AC"/>
<path id="Vector_28" d="M19.2667 13.1101C19.8682 13.1101 20.3557 12.6225 20.3557 12.0211C20.3557 11.4197 19.8682 10.9321 19.2667 10.9321C18.6653 10.9321 18.1777 11.4197 18.1777 12.0211C18.1777 12.6225 18.6653 13.1101 19.2667 13.1101Z" fill="#D9D6CC"/>
<path id="Vector_29" d="M27.0909 18.8899C27.6924 18.8899 28.1799 18.4023 28.1799 17.8009C28.1799 17.1995 27.6924 16.7119 27.0909 16.7119C26.4895 16.7119 26.002 17.1995 26.002 17.8009C26.002 18.4023 26.4895 18.8899 27.0909 18.8899Z" fill="#D9D6CC"/>
<path id="Vector_30" d="M24.0773 27.9885C24.6787 27.9885 25.1663 27.501 25.1663 26.8995C25.1663 26.2981 24.6787 25.8105 24.0773 25.8105C23.4758 25.8105 22.9883 26.2981 22.9883 26.8995C22.9883 27.501 23.4758 27.9885 24.0773 27.9885Z" fill="#D9D6CC"/>
<path id="Vector_31" d="M14.4816 28.1999C15.083 28.1999 15.5706 27.7124 15.5706 27.111C15.5706 26.5095 15.083 26.022 14.4816 26.022C13.8801 26.022 13.3926 26.5095 13.3926 27.111C13.3926 27.7124 13.8801 28.1999 14.4816 28.1999Z" fill="#D9D6CC"/>
</g>
<defs>
<clipPath id="clip0_527_834">
<rect width="38.5989" height="40" fill="white"/>
</clipPath>
</defs>
</svg>
