<svg width="40" height="40" viewBox="0 0 40 40" fill="none" xmlns="http://www.w3.org/2000/svg">
<path fill-rule="evenodd" clip-rule="evenodd" d="M4.33325 15.8335C4.33325 12.2191 7.21887 9.3335 10.8333 9.3335C14.4476 9.3335 17.3333 12.2191 17.3333 15.8335V28.3335C17.3333 28.9523 17.0874 29.5458 16.6498 29.9834C16.2122 30.421 15.6188 30.6668 14.9999 30.6668H6.66658C6.04775 30.6668 5.45425 30.421 5.01667 29.9834C4.57908 29.5458 4.33325 28.9523 4.33325 28.3335V15.8335ZM19.3333 15.8335C19.3333 13.2169 18.1707 10.8887 16.3304 9.3335H29.9999C33.1143 9.3335 35.6666 11.8858 35.6666 15.0002V28.3335C35.6666 28.9523 35.4208 29.5458 34.9832 29.9834C34.5456 30.421 33.9521 30.6668 33.3333 30.6668H18.6514C19.0932 29.9754 19.3333 29.1668 19.3333 28.3335V15.8335ZM33.3333 32.6668H14.9999H6.66658C5.51731 32.6668 4.41511 32.2103 3.60246 31.3976C2.7898 30.585 2.33325 29.4828 2.33325 28.3335V15.8335C2.33325 11.1145 6.1143 7.3335 10.8333 7.3335H29.9999C34.2189 7.3335 37.6666 10.7812 37.6666 15.0002V28.3335C37.6666 29.4828 37.21 30.585 36.3974 31.3976C35.5847 32.2103 34.4825 32.6668 33.3333 32.6668ZM25 14C24.4477 14 24 14.4477 24 15C24 15.5523 24.4477 16 25 16H29V18.3333C29 18.8856 29.4477 19.3333 30 19.3333C30.5523 19.3333 31 18.8856 31 18.3333V15C31 14.4477 30.5523 14 30 14H25ZM10 15.6665C9.44772 15.6665 9 16.1142 9 16.6665C9 17.2188 9.44772 17.6665 10 17.6665H11.6667C12.219 17.6665 12.6667 17.2188 12.6667 16.6665C12.6667 16.1142 12.219 15.6665 11.6667 15.6665H10Z" fill="#FFFEFA"/>
</svg>
